<svg width="61" height="60" viewBox="0 0 61 60" fill="none" xmlns="http://www.w3.org/2000/svg">
<g clip-path="url(#clip0_404_134)">
<g clip-path="url(#clip1_404_134)">
<g clip-path="url(#clip2_404_134)">
<mask id="mask0_404_134" style="mask-type:luminance" maskUnits="userSpaceOnUse" x="0" y="0" width="61" height="60">
<path d="M60.5601 0H0.560059V60H60.5601V0Z" fill="white"/>
</mask>
<g mask="url(#mask0_404_134)">
<path d="M60.5601 40.6055C60.5601 31.8599 54.6673 24.2189 46.3575 21.9164C45.8352 9.74304 35.7699 0 23.4703 0C10.8374 0 0.560059 10.2773 0.560059 22.9102C0.560059 27.0273 1.65595 31.0359 3.73694 34.5552L0.644287 45.7356L11.8252 42.6434C15.0602 44.5564 18.7095 45.634 22.476 45.7965C24.7781 54.1068 32.4195 60 41.1656 60C44.6565 60 48.0512 59.0703 51.034 57.3038L60.4754 59.9153L57.8639 50.4739C59.6304 47.4911 60.5601 44.0964 60.5601 40.6055ZM12.38 38.8422L5.68656 40.6938L7.53821 34.0004L7.11615 33.3403C5.12717 30.2284 4.07568 26.6217 4.07568 22.9102C4.07568 12.2159 12.776 3.51562 23.4703 3.51562C34.1645 3.51562 42.8648 12.2159 42.8648 22.9102C42.8648 33.6044 34.1645 42.3047 23.4703 42.3047C19.7587 42.3047 16.1524 41.2532 13.0401 39.2642L12.38 38.8422ZM55.4336 54.8735L50.4669 53.4993L49.8036 53.931C47.2323 55.6013 44.2449 56.4844 41.1656 56.4844C34.2918 56.4844 28.2516 52.0399 26.1116 45.667C36.6374 44.4534 45.0135 36.0773 46.2275 25.551C52.6 27.6915 57.0445 33.7317 57.0445 40.6055C57.0445 43.6848 56.1614 46.6722 54.4911 49.2435L54.0594 49.9068L55.4336 54.8735Z" fill="#F65730"/>
<path d="M21.7124 31.7578H25.2281V35.2734H21.7124V31.7578Z" fill="#F65730"/>
<path d="M26.9859 17.5781C26.9859 18.5765 26.5794 19.498 25.8415 20.1732L21.7124 23.9525V28.2422H25.2281V25.5006L28.215 22.7669C29.6679 21.4371 30.5015 19.5461 30.5015 17.5781C30.5015 13.7009 27.3475 10.5469 23.4703 10.5469C19.593 10.5469 16.439 13.7009 16.439 17.5781H19.9546C19.9546 15.6395 21.5316 14.0625 23.4703 14.0625C25.4089 14.0625 26.9859 15.6395 26.9859 17.5781Z" fill="#F65730"/>
</g>
</g>
</g>
</g>
<defs>
<clipPath id="clip0_404_134">
<rect width="60" height="60" fill="white" transform="translate(0.560059)"/>
</clipPath>
<clipPath id="clip1_404_134">
<rect width="60" height="60" fill="white" transform="translate(0.560059)"/>
</clipPath>
<clipPath id="clip2_404_134">
<rect width="60" height="60" fill="white" transform="translate(0.560059)"/>
</clipPath>
</defs>
</svg>
